/* XPM */
static char *result[] = {
/* columns rows colors chars-per-pixel */
"30 30 27 1 ",
"  c black",
". c #101009",
"X c #4F4F2C",
"o c #5E5F35",
"O c #6E6F3D",
"+ c #6E6F3E",
"@ c #7E7F46",
"# c #7E7F47",
"$ c #8D8E4F",
"% c #8E8F50",
"& c #ACAD60",
"* c #ADAE60",
"= c #ACAE61",
"- c #ADAE61",
"; c #CCCD72",
": c #CCCE72",
"> c #CDCE72",
", c #CDCE73",
"< c #DBDD7B",
"1 c #DCDE7B",
"2 c #DCDE7C",
"3 c #EBED83",
"4 c #EBED84",
"5 c #ECEE84",
"6 c #FBFD8C",
"7 c #FBFD8D",
"8 c #FCFE8D",
/* pixels */
"                              ",
"                              ",
"                              ",
"                              ",
"                              ",
"          .+-288,-o           ",
"         X5888888881o         ",
"        %888888888888#        ",
"       #88888888888888$       ",
"      o8888888888888887X      ",
"      188888888888888883.     ",
"     o888888888888888887O     ",
"     -888888888888888888=     ",
"     >888888888888888888<     ",
"     88888888888888888886     ",
"     88888888888888888886     ",
"     2888888888888888888:     ",
"     -888888888888888888=     ",
"     O888888888888888887o     ",
"     .48888888888888888<      ",
"      X8888888888888887o      ",
"       $88888888888888@       ",
"        @788888888888$        ",
"         o<788888884X         ",
"           o&;681*+.          ",
"                              ",
"                              ",
"                              ",
"                              ",
"                              "
};
