/* XPM */
static char *efa0f2d619be47a2a7b5c4c4819fd92aqtKap7Ky06HO7Ff0[] = {
/* columns rows colors chars-per-pixel */
"30 30 25 1 ",
"  c black",
". c #0D0203",
"X c #1B0406",
"o c #1C0406",
"O c #29070A",
"+ c #37090D",
"@ c #38090D",
"# c #440B10",
"$ c #520D13",
"% c #5F1017",
"& c #6D1219",
"* c #7B141C",
"= c #871620",
"- c #881620",
"; c #941923",
": c #951923",
"> c #A21B26",
", c #A31B26",
"< c #B11D29",
"1 c #BD1F2C",
"2 c #BF1F2D",
"3 c #CB2230",
"4 c #CC2230",
"5 c #D92433",
"6 c #DA2433",
/* pixels */
"                              ",
"                              ",
"                              ",
"                              ",
"                              ",
"                              ",
"                              ",
"                              ",
"     #$o                      ",
"     $66<-#.          X       ",
"     .666666,&+     .,&       ",
"      1666666664;# o26-       ",
"      *6666666661X$466,       ",
"      #666666661o&66663       ",
"      .66666664O;666666.      ",
"       ,666666646666666O      ",
"       &666646666666666$      ",
"       @6661-6666666666*      ",
"        461+66666666666;      ",
"        ,1X-666666666661      ",
"        #X@6666666%-1666.     ",
"          16666666<  $,6X     ",
"         $666666666%   XX     ",
"        X16666666663.         ",
"        *66666666666*         ",
"        @++++++++++++         ",
"                              ",
"                              ",
"                              ",
"                              "
};
