/* XPM */
static char *result[] = {
/* columns rows colors chars-per-pixel */
"30 30 26 1 ",
"  c black",
". c #010101",
"X c #101010",
"o c #111111",
"O c #202020",
"+ c gray13",
"@ c gray25",
"# c #414141",
"$ c #505050",
"% c #5F5F5F",
"& c #606060",
"* c gray38",
"= c gray50",
"- c #808080",
"; c gray56",
": c #909090",
"> c gray",
", c gray75",
"< c #CECECE",
"1 c gray81",
"2 c gray87",
"3 c #DFDFDF",
"4 c #EEEEEE",
"5 c #EFEFEF",
"6 c #FEFEFE",
"7 c white",
/* pixels */
"                              ",
"          @:15775,:@          ",
"        &377777777772%        ",
"      O1775-@O  X@:3772O      ",
"     %573@          &374$     ",
"    $77:X            X:76%    ",
"   O57-                -74O   ",
"   37:                 .:7<   ",
"  &73X                  o36%  ",
"  37%                    #72  ",
" @73                     .56@ ",
" :7:                      -7; ",
" ,7@                      #7< ",
" 57X                      +74 ",
" 77                       .76 ",
" 77                       .76 ",
" 57O                      o74 ",
" 17@                      #7> ",
" :7-                     .:7; ",
" @75                     .36@ ",
"  37#                    *72  ",
"  &73X                  o36%  ",
"   <7;                 .;72   ",
"   O47-.               -74O   ",
"    &67;o            X;76$    ",
"     $473&..        #374&     ",
"      O2673:#o. O@=577<O      ",
"        &267777777772%        ",
"          @;>46751:@          ",
"                              "
};
