/* XPM */
static char *result[] = {
/* columns rows colors chars-per-pixel */
"30 30 55 1 ",
"  c black",
". c #1B0406",
"X c #36090D",
"o c #37090D",
"O c #440B10",
"+ c #510D13",
"@ c #520D13",
"# c #520D14",
"$ c #7A141C",
"% c #7B141C",
"& c #7A141D",
"* c #A21B26",
"= c #A31B26",
"- c #AF1D29",
"; c #B01D29",
": c #B11D29",
"> c #B11D2A",
", c #BD1F2C",
"< c #BE1F2C",
"1 c #BE1F2D",
"2 c #BF1F2D",
"3 c #CB222F",
"4 c #CC222F",
"5 c #CB2230",
"6 c #CC2230",
"7 c #D92433",
"8 c #DA2433",
"9 c #DC3240",
"0 c #DE3F4D",
"q c #DF3F4D",
"w c #DF404E",
"e c #E14C59",
"r c #E14D59",
"t c #E8767F",
"y c #E77680",
"u c #EA838C",
"i c #EA848C",
"p c #EC9199",
"a c #EC9299",
"s c #EE9FA5",
"d c #EE9FA6",
"f c #F1ACB1",
"g c #F1ADB3",
"h c #F6C7CB",
"j c #F6C8CC",
"k c #F7D6D9",
"l c #F8D5D8",
"z c #FAE3E4",
"x c #FBE4E6",
"c c #FDF0F1",
"v c #FDF1F1",
"b c #FDF1F2",
"n c #FDF2F2",
"m c #FFFEFE",
"M c white",
/* pixels */
"                              ",
"          o&:6886=&o          ",
"        @288888888882@        ",
"      .>888888888888881.      ",
"     @688888888888888885O     ",
"    O888888888q0888888887+    ",
"   .6888888888ip8888888885.   ",
"   28888888888kh8888888888;   ",
"  @8888888888qMm08888888887@  ",
"  28888888888iMMp88888888881  ",
" o88888888888jMMh88888888887X ",
" %8889000000rMMMme0000009888$ ",
" =8889gMMMMMMMMMMMMMMMMd9888- ",
" 688888inMMMMMMMMMMMMni888885 ",
" 8888888qxMMMMMMMMMMl08888887 ",
" 888888888aMMMMMMMMs888888887 ",
" 6888888888jMMMMMMl8888888885 ",
" :88888888qMMMMMMMm988888888* ",
" %88888888tMMMMMMMMu88888888$ ",
" X88888888jMMzrwxMMh88888887X ",
"  <8888889MMs9889gMc9888888,  ",
"  +888888tvi888888tby888887+  ",
"   ;88888p088888888qf88888,   ",
"   .5888888888888888888883.   ",
"    +78888888888888888887O    ",
"     O588888888888888883#     ",
"      .,78888888888888;.      ",
"        +,7888888888<+        ",
"          X&*3884:&X          ",
"                              "
};
