/* XPM */
static char *result[] = {
/* columns rows colors chars-per-pixel */
"30 30 30 1 ",
"  c black",
". c #0D0203",
"X c #1B0406",
"o c #29070A",
"O c #36090D",
"+ c #37090D",
"@ c #440B10",
"# c #510D13",
"$ c #520D13",
"% c #5F1016",
"& c #5F1017",
"* c #6D1219",
"= c #6D121A",
"- c #7B141C",
"; c #7A141D",
": c #871620",
"> c #A21B26",
", c #A31B26",
"< c #B01D29",
"1 c #B11D29",
"2 c #B11D2A",
"3 c #BD1F2C",
"4 c #BE1F2C",
"5 c #BE1F2D",
"6 c #BF1F2D",
"7 c #CB222F",
"8 c #CB2230",
"9 c #CC2230",
"0 c #D92433",
"q c #DA2433",
/* pixels */
"                              ",
"          +;19qq9,;+          ",
"        $6qqqqqqqqqq6$        ",
"      X2qqqqqqqqqqqqqq5X      ",
"     $9qqqqqqqqqqqqqqqq8@     ",
"    @qqqqqqqqqqqqqqqqqqq0@    ",
"   X9qqqqqqqqqqqqqqqqqqq<.    ",
"   6qqqqqqqqqqqqqqqqqqq:      ",
"  $qqqqqqqqqqqqqqqqqqq=       ",
"  6qqqqqqqqqqqqqqqqqq&        ",
" +qqqqqqqqqqqqqqqqq7O         ",
" -qqqqqqqqqqqqqqqq3X          ",
" ,qqqqqqqqqqqqqqq<X           ",
" 9qqqqqqqqqqqqqq:.            ",
" qqqqqqqqqqqqqq;              ",
" qqqqqqqqqqqqqq%              ",
" 9qqqqqqqqqqqqq0#             ",
" 1qqqqqqqqqqqqqq8o            ",
" -qqqqqqqqqqqqqqq5X           ",
" Oqqqqqqqqqqqqqqqq5.          ",
"  4qqqqqqqqqqqqqqqq>          ",
"  #qqqqqqqqqqqqqqqqq;         ",
"   <qqqqqqqqqqqqqqqqq*        ",
"   X8qqqqqqqqqqqqqqqq0#       ",
"    #0qqqqqqqqqqqqqqqq0o      ",
"     @8qqqqqqqqqqqqqqqq3      ",
"      X30qqqqqqqqqqqqq>X      ",
"        #30qqqqqqqqq4#        ",
"          O;>70q4,;O          ",
"                              "
};
