/* XPM */
static char *f30ff551e9c9451fc68aa395fda25ff69DmmqHOKxANHeTGu[] = {
/* columns rows colors chars-per-pixel */
"30 30 18 1 ",
"  c black",
". c #121A20",
"X c #23333F",
"o c #233440",
"O c #2C414F",
"+ c #354D5F",
"@ c #4F748E",
"# c #4F748F",
"$ c #6A9ABE",
"% c #72A7CE",
"& c #73A7CE",
"* c #7BB3DD",
"= c #7BB4DE",
"- c #83C0ED",
"; c #84C0ED",
": c #84C1EE",
"> c #8CCDFD",
", c #8DCEFE",
/* pixels */
"                              ",
"          o#%:,,:$#o          ",
"        +=,,,,,,,,,,=+        ",
"      .%,,,,,,,,,,,,,,*.      ",
"     +:,,,,,,,,,,,,,,,,:O     ",
"    O,,,,,,,,,,,,,,,,,,,,+    ",
"   .:,,,,,,,,,,,,,,,,,,,,-.   ",
"   =,,,,,,,,,,,,,,,,,,,,,,%   ",
"  +,,,,,,,,,,,,,,,,,,,,,,,,+  ",
"  =,,,,,,,,,,,,,,,,,,,,,,,,*  ",
" o,,,,,,,,,,,,,,,,,,,,,,,,,,X ",
" #,,,,,,,,,,,,,,,,,,,,,,,,,,# ",
" $,,,,,,,,,,,,,,,,,,,,,,,,,,% ",
" :,,,,,,,,,,,,,,,,,,,,,,,,,,- ",
" ,,,,,,,,,,,,,,,,,,,,,,,,,,,, ",
" ,,,,,,,,,,,,,,,,,,,,,,,,,,,, ",
" :,,,,,,,,,,,,,,,,,,,,,,,,,,- ",
" &,,,,,,,,,,,,,,,,,,,,,,,,,,$ ",
" #,,,,,,,,,,,,,,,,,,,,,,,,,,# ",
" X,,,,,,,,,,,,,,,,,,,,,,,,,,X ",
"  =,,,,,,,,,,,,,,,,,,,,,,,,*  ",
"  +,,,,,,,,,,,,,,,,,,,,,,,,+  ",
"   %,,,,,,,,,,,,,,,,,,,,,,*   ",
"   .:,,,,,,,,,,,,,,,,,,,,-.   ",
"    +,,,,,,,,,,,,,,,,,,,,O    ",
"     O:,,,,,,,,,,,,,,,,:+     ",
"      .=,,,,,,,,,,,,,,%.      ",
"        +*,,,,,,,,,,=+        ",
"          X#$:,,-%#X          ",
"                              "
};
