/* XPM */
static char *_0a7d025a7c84088a9c237ea5a61499apKs4OKTavwTmEPwa[] = {
/* columns rows colors chars-per-pixel */
"30 30 20 1 ",
"  c black",
". c #1F2012",
"X c #202012",
"o c #3F3F23",
"O c #3F4023",
"+ c #4F4F2C",
"@ c #5E5F35",
"# c #8E8F4F",
"$ c #BCBD69",
"% c #BDBE6A",
"& c #CCCD73",
"* c #CDCE72",
"= c #DBDD7B",
"- c #DCDE7B",
"; c #EBED83",
": c #EBED84",
"> c #ECEE84",
", c #FBFD8C",
"< c #FBFD8D",
"1 c #FCFE8D",
/* pixels */
"                              ",
"          O#*>11>%#O          ",
"        @-1111111111-@        ",
"      .*11111111111111=X      ",
"     @>1111111111111111:+     ",
"    +1111111111111111111<@    ",
"   .>11111111111111111111;X   ",
"   -1111111111111111111111*   ",
"  @11111111111111111111111<@  ",
"  -111111111111111111111111=  ",
" O1111111111111111111111111<o ",
" #1111111111111111111111111<# ",
" %11111111111111111111111111* ",
" >11111111111111111111111111; ",
" 111111111111111111111111111< ",
" 111111111111111111111111111< ",
" >11111111111111111111111111; ",
" *11111111111111111111111111% ",
" #11111111111111111111111111# ",
" o1111111111111111111111111<o ",
"  -111111111111111111111111=  ",
"  @<1111111111111111111111<@  ",
"   *1111111111111111111111=   ",
"   .:11111111111111111111;X   ",
"    @<111111111111111111<+    ",
"     +:1111111111111111:@     ",
"      .=<1111111111111*X      ",
"        @=<111111111-@        ",
"          o#%;<1>*#o          ",
"                              "
};
