/* XPM */
static char *result[] = {
/* columns rows colors chars-per-pixel */
"30 30 54 1 ",
"  c black",
". c #1B0406",
"X c #36090D",
"o c #37090D",
"O c #440B10",
"+ c #510D13",
"@ c #520D13",
"# c #520D14",
"$ c #7A141C",
"% c #7B141C",
"& c #7A141D",
"* c #A21B26",
"= c #A31B26",
"- c #AF1D29",
"; c #B01D29",
": c #B11D29",
"> c #B11D2A",
", c #BD1F2C",
"< c #BE1F2C",
"1 c #BE1F2D",
"2 c #BF1F2D",
"3 c #CB222F",
"4 c #CC222F",
"5 c #CB2230",
"6 c #CC2230",
"7 c #D92433",
"8 c #DA2433",
"9 c #DA2534",
"0 c #DC3240",
"q c #DE3F4D",
"w c #DF3F4D",
"e c #E14C59",
"r c #E35A66",
"t c #EA848C",
"y c #EC9199",
"u c #ED9199",
"i c #EC9299",
"p c #EE9FA5",
"a c #EF9FA5",
"s c #EE9FA6",
"d c #EF9FA6",
"f c #EEA0A6",
"g c #F1ADB2",
"h c #F1ADB3",
"j c #F4BBBF",
"k c #F6C8CC",
"l c #FAE3E4",
"z c #FBE3E5",
"x c #FAE4E5",
"c c #FBE4E6",
"v c #FDF0F1",
"b c #FDF2F2",
"n c #FFFEFE",
"m c white",
/* pixels */
"                              ",
"          o&:6886=&o          ",
"        @288888888882@        ",
"      .>888888888888881.      ",
"     @688888888888888885O     ",
"    O88888888888888888887+    ",
"   .6888888888888888888885.   ",
"   2888888wq88888888888888;   ",
"  @8888888ty888888ubba88887@  ",
"  28888qrrckrre88dmmmmy88881  ",
" o88888wjmmmmk089bmmmmv88887X ",
" %8888888hmmg8889bmmmmv88888$ ",
" =8888888kxck8888ymmmmp88888- ",
" 6888888ws00f08888fbbi8888885 ",
" 8888888888880888888888888887 ",
" 8888888888888888888888888887 ",
" 6888888888888888888888888885 ",
" :88888888999998888888888888* ",
" %88888888cmmmmmmmml88888888$ ",
" X88888888mmmmmmmmmn88888887X ",
"  <8888888mmmmmmmmmn8888888,  ",
"  +8888888mmmmmmmmmn8888887+  ",
"   ;888888mmmmmmmmmn888888,   ",
"   .588888znnnnmmmml888883.   ",
"    +78888888888888888887O    ",
"     O588888888888888883#     ",
"      .,78888888888888;.      ",
"        +,7888888888<+        ",
"          X&*3784:&X          ",
"                              "
};
