/* XPM */
static char *result[] = {
/* columns rows colors chars-per-pixel */
"30 30 27 1 ",
"  c black",
". c #1B0406",
"X c #36090D",
"o c #37090D",
"O c #440B10",
"+ c #510D13",
"@ c #520D13",
"# c #520D14",
"$ c #7A141C",
"% c #7B141C",
"& c #7A141D",
"* c #A21B26",
"= c #A31B26",
"- c #AF1D29",
"; c #B01D29",
": c #B11D29",
"> c #B11D2A",
", c #BD1F2C",
"< c #BE1F2C",
"1 c #BE1F2D",
"2 c #BF1F2D",
"3 c #CB222F",
"4 c #CC222F",
"5 c #CB2230",
"6 c #CC2230",
"7 c #D92433",
"8 c #DA2433",
/* pixels */
"                              ",
"          o&:6886=&o          ",
"        @288888888882@        ",
"      .>888888888888881.      ",
"     @688888888888888885O     ",
"    O88888888888888888887+    ",
"   .6888888888888888888885.   ",
"   28888888888888888888888;   ",
"  @888888888888888888888887@  ",
"  28888888888888888888888881  ",
" o88888888888888888888888887X ",
" %88888888888888888888888888$ ",
" =88888888888888888888888888- ",
" 6888888888888888888888888885 ",
" 8888888888888888888888888887 ",
" 8888888888888888888888888887 ",
" 6888888888888888888888888885 ",
" :88888888888888888888888888* ",
" %88888888888888888888888888$ ",
" X88888888888888888888888887X ",
"  <888888888888888888888888,  ",
"  +888888888888888888888887+  ",
"   ;8888888888888888888888,   ",
"   .5888888888888888888883.   ",
"    +78888888888888888887O    ",
"     O588888888888888883#     ",
"      .,78888888888888;.      ",
"        +,7888888888<+        ",
"          X&*3784:&X          ",
"                              "
};
