/* XPM */
static char *result[] = {
/* columns rows colors chars-per-pixel */
"30 30 26 1 ",
"  c black",
". c #0D0203",
"X c #1B0406",
"o c #29070A",
"O c #36090D",
"+ c #37090D",
"@ c #440B10",
"# c #510D13",
"$ c #520D13",
"% c #7B141C",
"& c #7A141D",
"* c #881620",
"= c #A21B26",
"- c #A31B26",
"; c #B01D29",
": c #B11D29",
"> c #B11D2A",
", c #BD1F2C",
"< c #BE1F2C",
"1 c #BE1F2D",
"2 c #BF1F2D",
"3 c #CB222F",
"4 c #CB2230",
"5 c #CC2230",
"6 c #D92433",
"7 c #DA2433",
/* pixels */
"                              ",
"          +&:5775-&+          ",
"        $277777777772$        ",
"      X>777777777777771X      ",
"     $577777777777777774@     ",
"    @77777777777777777776#    ",
"   X5777777777777777777774X   ",
"   27777777777777777777777;   ",
"  $777777777777777777777773o  ",
"  27777777777777777777777&.   ",
" +777777777777777777777*X     ",
" %7777777777777777777*X       ",
" -77777777777777777=O         ",
" 5777777777777777=O           ",
" 77777777777777=O             ",
" 77777777777777=+             ",
" 5777777777777777*X           ",
" :77777777777777777*X         ",
" %7777777777777777777*X       ",
" O777777777777777777777*X     ",
"  <7777777777777777777777*X   ",
"  #777777777777777777777776O  ",
"   ;7777777777777777777777,   ",
"   X4777777777777777777773X   ",
"    #67777777777777777776@    ",
"     @477777777777777773@     ",
"      X,67777777777777=X      ",
"        #,6777777777<#        ",
"          O&=367<-&O          ",
"                              "
};
