/* XPM */
static char *_647715314425[] = {
/* columns rows colors chars-per-pixel */
"50 50 221 2 ",
"   c #0E141C",
".  c #0F181E",
"X  c #11161D",
"o  c #121B1D",
"O  c #1B1C1E",
"+  c #2A1E17",
"@  c #341E18",
"#  c #1A251F",
"$  c #27221C",
"%  c #332316",
"&  c #342519",
"*  c #39291B",
"=  c #071323",
"-  c #0B1424",
";  c #0E1A28",
":  c #131A23",
">  c #1C1F23",
",  c #131C29",
"<  c #172421",
"1  c #1A2323",
"2  c #1C2A26",
"3  c #13222C",
"4  c #1B252C",
"5  c #1B2A29",
"6  c #1B312D",
"7  c #142632",
"8  c #1E2731",
"9  c #162B35",
"0  c #1B2C34",
"q  c #172F39",
"w  c #1A2E3A",
"e  c #1E3237",
"r  c #17313A",
"t  c #19333B",
"y  c #212C25",
"u  c #2F2D23",
"i  c #21262B",
"p  c #232B2A",
"a  c #312F28",
"s  c #23342B",
"d  c #29352D",
"f  c #263A2D",
"g  c #2B392C",
"h  c #3D372B",
"j  c #222D33",
"k  c #242F39",
"l  c #233235",
"z  c #2A3433",
"x  c #2C3934",
"c  c #23343B",
"v  c #2A353A",
"b  c #263A3D",
"n  c #2A3B3D",
"m  c #343A34",
"M  c #313D3A",
"N  c #4B2B1B",
"B  c #45331E",
"V  c #472621",
"C  c #483925",
"Z  c #573B22",
"A  c #663D24",
"S  c #2E433E",
"D  c #384238",
"F  c #3B433C",
"G  c #3D493F",
"H  c #5A492A",
"J  c #444937",
"K  c #434A3B",
"L  c #654E2B",
"P  c #74492C",
"I  c #75522D",
"U  c #784D31",
"Y  c #675432",
"T  c #785933",
"R  c #243741",
"E  c #223B42",
"W  c #2B3D42",
"Q  c #2D4144",
"!  c #2D4349",
"~  c #324444",
"^  c #394440",
"/  c #3B4A43",
"(  c #334749",
")  c #354B4C",
"_  c #3A4D4B",
"`  c #3B534A",
"'  c #3E534D",
"]  c #384F51",
"[  c #3B5453",
"{  c #3F5954",
"}  c #444D41",
"|  c #445646",
" . c #4B5343",
".. c #42564E",
"X. c #4B5649",
"o. c #43594E",
"O. c #4B5A4C",
"+. c #535E4D",
"@. c #425651",
"#. c #445C53",
"$. c #4B5E53",
"%. c #535F50",
"&. c #52624B",
"*. c #5C654B",
"=. c #466156",
"-. c #4A6355",
";. c #476358",
":. c #496659",
">. c #4C695B",
",. c #526556",
"<. c #596853",
"1. c #546B5C",
"2. c #5B6D5B",
"3. c #5F715D",
"4. c #656A4B",
"5. c #6A704C",
"6. c #7F7944",
"7. c #7B7B4E",
"8. c #676E51",
"9. c #687656",
"0. c #6D7555",
"q. c #62735C",
"w. c #727652",
"e. c #757B55",
"r. c #7B7D52",
"t. c #747F5B",
"y. c #7A7D58",
"u. c #5D7463",
"i. c #5C7866",
"p. c #617664",
"a. c #637965",
"s. c #6B7D64",
"d. c #647D6A",
"f. c #697F6B",
"g. c #717F64",
"h. c #895C2D",
"j. c #95642E",
"k. c #856533",
"l. c #8D6A32",
"z. c #906C33",
"x. c #89743C",
"c. c #977539",
"v. c #A37938",
"b. c #857F43",
"n. c #7C8256",
"m. c #74825B",
"M. c #7D855A",
"N. c #7E895D",
"B. c #6E8066",
"V. c #66806B",
"C. c #6A826C",
"Z. c #758364",
"A. c #7A8663",
"S. c #7D8A64",
"D. c #73866A",
"F. c #7A876A",
"G. c #76896D",
"H. c #7B8C6C",
"J. c #7F916D",
"K. c #678570",
"L. c #6B8670",
"P. c #6D8A73",
"I. c #728D74",
"U. c #7A8D71",
"Y. c #739077",
"T. c #7D9273",
"R. c #729079",
"E. c #AA883F",
"W. c #B2893C",
"Q. c #8B8147",
"!. c #85834E",
"~. c #8B844C",
"^. c #8D894B",
"/. c #938B4B",
"(. c #9B8E4B",
"). c #9D924C",
"_. c #838454",
"`. c #8B8552",
"'. c #838857",
"]. c #8C8952",
"[. c #81865A",
"{. c #848D5D",
"}. c #8B8C59",
"|. c #928B54",
" X c #908C58",
".X c #86905F",
"XX c #8A915D",
"oX c #949354",
"OX c #9D9754",
"+X c #93935A",
"@X c #A68440",
"#X c #A98C42",
"$X c #B28E41",
"%X c #A69646",
"&X c #AC9A47",
"*X c #A2954A",
"=X c #A69A4D",
"-X c #AB9C4A",
";X c #B39244",
":X c #B09C46",
">X c #B19E48",
",X c #AFA14A",
"<X c #B7A347",
"1X c #B4A24A",
"2X c #BAA549",
"3X c #BCAA4A",
"4X c #838E62",
"5X c #818E69",
"6X c #879160",
"7X c #889261",
"8X c #84936C",
"9X c #8B986A",
"0X c #969A60",
"qX c #839573",
"wX c #859974",
"eX c #849977",
"rX c #899C75",
"tX c #8C9E78",
"yX c #8EA27A",
"uX c #91A57D",
"iX c #C0AD4B",
/* pixels */
"p i i p g g J w..X7X.Xm.l 9 t t r 3 G {..X.X.X'.`.{.{.{.6X6X6X{.7X{..X7X7X{.6X.XN..X{.{.4X7X7X.XXX7X",
"p p d g D 4.{.{.7X.X.XN.G r t r 9 l w..X.X.X.X}.`.'.{..X{.{.'.{.{..X{.7X7X{..X{.r.{.{.{.{.{.7X{.7X7X",
"d x d J y.7X{.{..X7X.Xm.S r r t } r.'.n..X{..X.X7X7X.X.X{.{.`.'.7X.X.XN.N.7X7X.X`.n..XN./ D *.M..X7X",
"g x Q O.{.{.6X7X.X.X.X| r r r / {.'.|.'..Xn.N.'.{.{.{..X{.{._.{..X.X.X'.7.'.7X{.'.'..Xm.c 9 0 x  .0.",
"z ~ [ [ 8.4X{.{..X.X9.t t r c 0.{.}.`.M.{.n.M.N.7XM.n..X7X4X{.7X.X.X.X{._.{.7X.X.X{.XX9.t t 9 r q c ",
"( ( ) [ O.M.7X{..X.X` r t r  ..X.X{.{.7Xn.e.e..XN.e.M..XM.n.'.7XM..X{.{.7X.X{.{.{.{.7X<.t t 9 9 t t ",
"] ) ~ [ [ 8.{.7X.X9.e t t b e.7X.X{.{.N.M.M.n..Xn.e.n..Xe.w.7X4Xn.n.M.N..Xe.5.{.'.r.7XX.r t r 9 9 t ",
"v j k ~ _ @.M.7XN.~ r t q | {..X.X{.{.n..X.X.XN..XN.{.{.n.n.{.{..Xw.{..X.Xe.5.N.'.].{.| r t t r 7 q ",
", 3 7 7 8 ] <.{.<.e t t c w.XX{.7X'. X'.{..X7X.XN..X.X7X7X{..X6X{.N.{.7X{.n.'..X{.n..X` r t t r 7 7 ",
"9 R E R , ( %.t.S t t t } {..X.X{.{.|._.'.7X.X{.'.'.{.{.{.{.6X6X.X7X7X{.{..X{..X.X.X.XS r t t t 3 7 ",
"7 9 E w , } [.&.t t t t 8.{.7X{.{.'.n.{.4X.X4X'.|.'..X7X{..X{..X'.{.7X7X{.7X{.{..X.XN.S r t r r ; 9 ",
", 8 R k z *.*.b t t t F {..X7X{.7X6X.X7X{..X7X{.'.{.{.XX.X.X{.N.].'.6XN.6XN.}.n.'.XXN.b r r 9 7 ; 9 ",
"8 0 ~ [ ~ ~ e r t t e 4.7X{.7X7X4X7X.X{..X.X{.7X.X{..X.X.X.X{.{.'.{..X.X{.{.!.n.{..Xm.l 7 9 q 9 ; 3 ",
"0 l n ~ Q v w t E t M n.4XN..X.X7X{.6X.X{.{..X{.!.^._.{.7X.X7X7X.X.X.X.X7X.XN..X.X.Xm.5 ; r r 7   ; ",
"k Q Q n c 4 7 w t q _ *.0.8.N..X.X{.{..X.X7X{./.1X3X-X_.{.{.{.{..X7X.X{..X.X.X.X7X.X{.4.K s 3 3 = 9 ",
"Q Q n n , - - , r S o.o.X.+.n..X{.6X6X.X{.4X_.>X3X3X3X/.'./.(.!.7.n.{..X.X7X7X.X.X.X6X.X.XM.*.m 4 9 ",
"~ l c n 0 w 4 - , { #.$.#.X.w.4X.X7X{..X4X/.-X3X3X3X2X^.~.<XiX3X,XQ.n..X{..X{.{.XX.X.X{.6X6X6X.XO.w ",
"b 0 l c r w v 4 i #.;.;.@.%.y.4X6XA.H.{.}.:XiX3X3X3X3X1X1X3X3X3X3X,X6.!.Q.!.n.{.XX.X{.{.{.{.{.6X&.r ",
"c 4 l t r l M x #.@.;.-.@.$.0.4XN.5XrX4X!.>X3X3X3X3X3X3X3X3X3X3X3X2X2X3X3X3XQ.n..X.X{..X4XN.t.e.K q ",
"n l e r e p z ~ #.:.$.#.:.-.y.#X-X=XOX(.1X3XiX3X3X3X3X3X3X3X3X3X3X3X3X3X3X2X(.n..XXXN.N.4XN.N.m.| q ",
"l n z l w 0 4 ( ` ;.#.@.,.q.b.3X3X3X3X3X<X-X%X&X3X3X3X3X3X3X3X3X3X3X3X3X3X3X3X=XN.{.M.9X8XN.m.q._ w ",
"l v D z e t z ~ #.#.#.:.@.g.).2X3X3X3X3X^.'.'.Q.2X3X3X3X3X,X/.*X).).).*X2X3X3X,Xn.{..XJ.D.9.u.V.#.w ",
"z x Q 0 q Q ! n $.#.' #.1.g.b.|.<X3X,X1X/.{.{.M.^.-X-X).^.!.'.'.'..XN.7.&X3X<X/.n..XS.B.i.V.V.P.=.9 ",
", 3 0 9 t ] ) W ] c R k [ f.eXtX(.oX9X'._.N.J.T.U.A.M.n.n.7X.X.X6XN.A.A._.OX|.4X'..XN.V.a.V.3.u.#.9 ",
"7 9 r t ! [ ) e 4 w w w R p.Y.5X~.rXtXN.5X5XT.qXT.U.qX8XS.6X{.{.4X8XU.U.U.rXyXrX8XN.A.d.2.u.p.f.{ 9 ",
"7 7 t e [ [ W R ( W W ] i.P.P.b.*X9XH.N.8XtXU.eXU.T.T.5X8X4X7X{.7XrXU.H.H.tXrXrXrXS.B.d.d.K.L.P.' r ",
"; 7 9 ( { ) c #.=.=.u.P.Y.Y.P.5X}.`.r.'.8X8XS.4X4XT.8XH.8XM.'.N.8XqXU.U.H.tXeXwXyX9Xg.f.L.G.D.s.` r ",
"= 7 b [ ] R ) >.:.=.1.i.I.Y.U.tXyXrX`.-X,X=X*X&X&X`.H.qXA.{.N.8XeXqXT.T.T.yXqXyXeXyXU.F.F.D.p.,.n r ",
"- , ) [ ! W :.$.>.:.=.:.2.C.wXyXrX8X!.*X-X).}.}.(.*X5XyXqXeX5X8XrXqXT.U.qXyXqX5XZ.D.H.q.@.[ ] [ R r ",
"- c [ ] w _ :.:.=.>.>.=.>.,.A.eXrXeX5XS.A.F.U.H.^.oX9XeXeXyXyXeXtXG.U.U.tXtXG.m > i M _ [ [ [ { b r ",
"8 ] { ! w ( #.:.>.#.:.>.=.:.2.9XyXyXwXrXqXT.qXF.~.}.XX+XOX+X9XrXtXG.H.D.<.M m , 4 l l [ [ [ ] ] c r ",
"R { [ c W @.@._ =.>.#.:.>.#.2.D.D.qXwXrXF.U.H.qX8Xb.-X3X3X1X_.8XU.s.L.1.v i j l W Q n ) @.$.,.#.e t ",
"j [ ( w ~ $._ ` / #.:.#.>.:.:.p.K.C.F.u._ _ f.eX5X|.(.+Xb.s.s.f.f.p.P.L.@.n W W _ ..$.2.G.eXeXu.6 t ",
"W [ R W #.' #.{ ( / #.=.:.=.>.1.p.d.i.W W @.f.T.b.OXqXqXI.s.p.f.P.d.d.d.:.( @.1.u.K.P.f.f.g.T.u.q t ",
"[ ) R [ =.=.' #.#._ ` =.=.#.=.>.1.d.:.#.i.b.b.b.b.g.b.C.2.W W X.2.a.L.R.L.K.P.I.d.f.L.P.P.C.D.p.q t ",
"] R W :.=.>.;.' #.#...#.>.=.#.>.>.1.[ d.G.OXrXtXd., 8 k : X X X : j ^ 1.f.d.P.I.K.f.i.d.d.f.U.p.0 t ",
"! k ' #.:.>.;.#.' =.=.{ =.=.=.>.;.` _ q.].*XXXuXp.-         - X X X . 1 ,.P.R.L.#.$.d.f.d.f.U.p.7 9 ",
"w R :.#.#.>.#.@.=.=.>.:.$.{ =.#.=.) X.#X*Xy.4XyX3.  X , O u u > - X X   i ,.d.P.i.#.@.f.L.C.T.1.1 s ",
"w ( >.>.:.{ ` ..#.:.=.=.>.=.=.=.#.~ :.4.7.(.:X|.W O V T U b.v.k.C > X X X : > ,.P.P.:.d.P.f.eX$.s f ",
"R @.:.#.;.{ ..#.=.=.` =.=.:.=.=.[ _ :.$.:.r.*XQ.a Z l.U U v.;Xc.U Y $ -   X X / 1.1.@.2.P.f.eX$.s f ",
"W ;.=.>.o...{ #.=.:.=.#.' ;.>.;.( #.:.{ { u.g.Y H k.l.k.h.v.v.l.P U C X X X z -.:.$.` -.u.s.eX,.s f ",
"( =.=.>.{ ' #.>.#.o.=.>.o.' { { ( #.;.;.' 3.qX5.H k.z.z.v.W.$Xl.I I B +   X / >.:.[ o.=.1.G.uX&.s s ",
"#.=.>.=.' o.=.=.{ ' { $.>.=.#.( [ :.=.>.:.s.8XZ.Y c.z.v.;X$X;X#Xc.L * & X > | 1.>.' #.$.-.q.T.o.s 2 ",
";.#.;.o.o.{ ' ..:.o.` ..' ;.=.Q [ #.:.>.:.q.q. .k.;XE.k.E.$X;X;Xc.* & @ + z | >.=.' 1.$.=.-.s.| 2 y ",
"( M M ` ~ f 2 s ` >.=.' ' $.! n @.#.=.>.1.u.d.C Z v.;X@Xv.$X;X;Xx.* & & & K =.-.' O.>.-.=.o.2.G 2 f ",
"# # o 1 < o 2 < 1 $.>.=.{ ` R n =.#.;.>.d.C.u.* & Z Q.;X;X;X;X;XY * * & % G =.=.` =.-.=.-.| 1.G 2 y ",
"o o o O o o 5 6 5 o.>.:.#.) W [ =.:.>.1.V.C.+.& & % N T c.v.@Xv.H % & % $ a -.-.' -.o.-.1.B.T.G f f ",
"    o o o   o 2 2 d { >.;.~ ~ #.;.>.>.i.C.K.J @ % % @ @ N A h.j.B % % % % & K ' -.-.=.>.3.eXU.x 1 1 ",
"o   o o o o o o # # s S s 6 [ #.#.:.1.P.V.P.u.h & & @ @ Z P j.k.& & % % % % m ` >.O.-.>.q.B.s.4 = = ",
"o o     o o . # # # # # 6 S #.#.#.=.a.P.V.I.R.V.h % % @ @ V A A % % % % & G O.` >.o.:.,.s.-.-.5 = = "
};
